<svg width="1440" height="308" viewBox="0 0 1440 308" fill="none" xmlns="http://www.w3.org/2000/svg">
<rect x="-5.03979" width="1444" height="308" rx="5" fill="#78C0DE"/>
<g opacity="0.1">
<path d="M1348.87 201.397C1327.21 190.188 1301.68 190.769 1280.58 202.954C1259.47 215.139 1246.2 236.959 1245.08 261.32L1242.38 320.022C1241.93 329.761 1244.57 339.189 1250.01 347.282C1255.46 355.376 1263.19 361.374 1272.38 364.634C1281.58 367.886 1291.36 368.088 1300.68 365.219C1309.99 362.351 1317.96 356.677 1323.73 348.814L1324.11 348.285C1338.72 328.672 1360.99 315.919 1385.32 313.257C1391.59 312.57 1397.53 310.623 1402.88 307.534C1405.79 305.855 1408.53 303.835 1411.04 301.5C1418.19 294.868 1422.9 286.295 1424.69 276.705C1426.46 267.118 1425.14 257.418 1420.85 248.653C1416.56 239.889 1409.72 232.889 1401.06 228.405L1348.87 201.397Z" fill="white"/>
<path d="M1224.78 271.589C1231.1 263.775 1233.5 253.664 1231.52 243.117C1229.64 233.08 1223.96 223.801 1215.53 216.988C1207.1 210.181 1196.83 206.58 1186.62 206.843C1175.89 207.122 1166.5 211.58 1160.19 219.392C1147.49 235.091 1151.64 259.578 1169.45 273.987C1183.64 285.444 1202.28 287.091 1215.69 279.349C1219.11 277.372 1222.2 274.782 1224.78 271.589Z" fill="white"/>
<path d="M1258.19 207.535C1278.89 195.583 1284.93 167.149 1271.65 144.151C1258.37 121.147 1230.73 112.157 1210.02 124.109C1189.32 136.059 1183.29 164.496 1196.57 187.5C1209.85 210.498 1237.49 219.486 1258.19 207.535Z" fill="white"/>
<path d="M1328.47 181.57L1328.47 181.569C1332.21 180.813 1335.7 179.471 1338.88 177.634C1353.73 169.063 1361.88 149.772 1357.7 129.777C1355.29 118.266 1349.18 108.157 1340.48 101.313C1331.38 94.1466 1320.57 91.3693 1310.05 93.4919C1299.53 95.6156 1290.71 102.353 1285.22 112.462C1279.98 122.119 1278.42 133.777 1280.83 145.285C1285.91 169.565 1307.28 185.842 1328.47 181.57Z" fill="white"/>
<path d="M1403.85 130.883L1403.84 130.881C1383.75 128.665 1365.24 145.34 1362.58 168.06C1359.94 190.781 1374.12 211.085 1394.2 213.321C1401.52 214.138 1408.64 212.442 1414.85 208.854C1425.68 202.602 1433.78 190.601 1435.47 176.146C1438.12 153.427 1423.93 133.122 1403.85 130.883Z" fill="white"/>
</g>
<g opacity="0.1">
<path d="M203.054 270.896C198.798 257.51 188.164 247.349 174.607 243.716C161.049 240.083 146.759 243.566 136.381 253.031L111.373 275.837C107.223 279.621 104.46 284.536 103.38 290.048C102.301 295.562 103.008 301.155 105.424 306.226C107.844 311.294 111.746 315.361 116.708 317.987C121.67 320.613 127.228 321.548 132.778 320.694L133.15 320.636C147.087 318.597 161.349 322.472 172.341 331.295C175.176 333.571 178.39 335.199 181.827 336.119C183.695 336.62 185.632 336.911 187.608 336.986C193.218 337.194 198.63 335.623 203.261 332.443C207.89 329.263 211.301 324.772 213.124 319.457C214.947 314.141 215.011 308.503 213.31 303.15L203.054 270.896Z" fill="white"/>
<path d="M123.93 248.944C129.689 248.339 134.783 245.197 138.273 240.096C141.594 235.243 143.061 229.151 142.402 222.942C141.74 216.737 139.026 211.089 134.758 207.036C130.275 202.781 124.636 200.772 118.885 201.383C107.317 202.603 99.0336 214.265 100.419 227.387C101.535 237.835 108.454 246.095 117.069 248.404C119.268 248.993 121.579 249.194 123.93 248.944Z" fill="white"/>
<path d="M163.624 236.465C176.923 240.029 190.963 230.908 194.921 216.134C198.881 201.357 191.283 186.436 177.984 182.873C164.687 179.31 150.648 188.433 146.688 203.21C142.729 217.984 150.327 232.902 163.624 236.465Z" fill="white"/>
<path d="M202.822 254.514L202.823 254.514C204.654 255.729 206.62 256.602 208.663 257.15C218.201 259.705 229.378 255.17 235.818 245.323C239.525 239.655 241.152 233.047 240.397 226.718C239.609 220.092 236.339 214.561 231.19 211.14C226.039 207.72 219.705 206.874 213.353 208.756C207.285 210.553 201.903 214.666 198.197 220.335C190.379 232.293 192.453 247.625 202.822 254.514Z" fill="white"/>
<path d="M254.164 264.57L254.161 264.565C246.88 255.48 232.551 254.733 222.215 262.903C211.885 271.08 209.394 285.127 216.66 294.213C219.309 297.529 222.898 299.736 226.89 300.806C233.847 302.67 242.031 301.079 248.609 295.883C258.937 287.706 261.43 273.66 254.164 264.57Z" fill="white"/>
</g>
<g opacity="0.1">
<path d="M34.7442 178.463C39.7653 169.19 39.721 158.148 34.6242 148.926C29.5275 139.703 20.2018 133.791 9.6796 133.109L-15.6762 131.465C-19.8827 131.192 -23.9801 132.258 -27.5226 134.545C-31.0659 136.832 -33.7216 140.128 -35.2052 144.075C-36.6854 148.023 -36.8519 152.251 -35.6873 156.302C-34.5227 160.352 -32.1341 163.844 -28.7818 166.401L-28.5563 166.571C-20.1955 173.045 -14.8624 182.774 -13.9089 193.313C-13.6626 196.031 -12.8688 198.617 -11.5769 200.954C-10.8745 202.225 -10.0235 203.424 -9.03457 204.531C-6.22538 207.673 -2.5571 209.781 1.57443 210.629C5.70418 211.475 9.90865 210.981 13.7322 209.198C17.5558 207.415 20.6374 204.514 22.6461 200.806L34.7442 178.463Z" fill="white"/>
<path d="M5.40484 124.248C8.73133 127.046 13.083 128.164 17.6587 127.394C22.0131 126.663 26.0706 124.283 29.0842 120.693C32.0948 117.103 33.735 112.694 33.7036 108.276C33.6699 103.636 31.8187 99.5406 28.4929 96.7493C21.809 91.1299 11.1892 92.725 4.81592 100.308C-0.251854 106.353 -1.11472 114.396 2.12372 120.256C2.95063 121.752 4.04516 123.106 5.40484 124.248Z" fill="white"/>
<path d="M32.8247 139.211C37.824 148.257 50.0675 151.099 60.1173 145.545C70.1696 139.989 74.2799 128.11 69.2806 119.064C64.2817 110.018 52.037 107.179 41.9848 112.734C31.935 118.288 27.8258 130.166 32.8247 139.211Z" fill="white"/>
<path d="M43.4818 169.805C43.7784 171.428 44.3307 172.946 45.099 174.336C48.6844 180.824 56.9577 184.505 65.6358 182.859C70.6315 181.911 75.0515 179.35 78.0806 175.645C81.2522 171.768 82.5403 167.119 81.7079 162.554C80.875 157.987 78.0335 154.122 73.7078 151.668C69.5755 149.323 64.5484 148.555 59.5536 149.504C49.0162 151.504 41.8064 160.611 43.4818 169.805Z" fill="white"/>
<path d="M64.7839 202.802L64.7851 202.798C65.9057 194.13 58.8468 185.993 49.0462 184.66C39.2451 183.333 30.3528 189.302 29.2237 197.963C28.8109 201.122 29.4866 204.212 30.9872 206.927C33.6026 211.66 38.7251 215.256 44.9602 216.107C54.7608 217.433 63.6536 211.465 64.7839 202.802Z" fill="white"/>
</g>
<g opacity="0.1">
<path d="M352.683 189.348C349.643 187.388 345.866 187.114 342.579 188.615C339.292 190.117 337.026 193.151 336.517 196.731L335.291 205.359C335.087 206.79 335.344 208.219 336.033 209.49C336.723 210.762 337.78 211.756 339.091 212.367C340.402 212.977 341.844 213.144 343.259 212.852C344.675 212.56 345.932 211.835 346.894 210.755L346.958 210.683C349.391 207.993 352.858 206.424 356.486 206.374C357.422 206.361 358.327 206.158 359.16 205.777C359.613 205.57 360.046 205.311 360.45 205.001C361.598 204.123 362.415 202.924 362.813 201.533C363.211 200.143 363.152 198.693 362.643 197.338C362.133 195.984 361.222 194.854 360.006 194.07L352.683 189.348Z" fill="white"/>
<path d="M333.375 197.961C334.419 196.896 334.915 195.438 334.772 193.853C334.636 192.345 333.928 190.895 332.78 189.77C331.631 188.647 330.166 187.97 328.655 187.865C327.067 187.755 325.618 188.281 324.576 189.345C322.48 191.484 322.747 195.157 325.173 197.535C327.108 199.426 329.835 199.932 331.924 198.978C332.457 198.735 332.949 198.396 333.375 197.961Z" fill="white"/>
<path d="M339.21 188.976C342.434 187.504 343.727 183.391 342.091 179.809C340.454 176.226 336.5 174.509 333.276 175.982C330.051 177.454 328.76 181.567 330.396 185.15C332.032 188.732 335.986 190.449 339.21 188.976Z" fill="white"/>
<path d="M349.951 186.133L349.951 186.133C350.514 186.074 351.047 185.925 351.543 185.699C353.855 184.643 355.331 181.91 354.995 178.899C354.802 177.166 354.042 175.588 352.854 174.455C351.612 173.269 350.056 172.706 348.473 172.872C346.889 173.037 345.493 173.907 344.541 175.322C343.631 176.674 343.236 178.373 343.43 180.105C343.838 183.761 346.763 186.465 349.951 186.133Z" fill="white"/>
<path d="M361.793 179.713L361.792 179.713C358.857 179.103 355.889 181.303 355.177 184.62C354.466 187.937 356.274 191.134 359.206 191.747C360.276 191.971 361.35 191.82 362.318 191.378C364.005 190.608 365.369 188.951 365.823 186.841C366.533 183.524 364.726 180.327 361.793 179.713Z" fill="white"/>
</g>
<g opacity="0.05">
<path d="M360.835 162.962C360.669 159.349 358.701 156.113 355.571 154.306C352.442 152.499 348.656 152.413 345.444 154.076L337.705 158.081C336.421 158.745 335.406 159.784 334.77 161.083C334.134 162.382 333.937 163.82 334.2 165.242C334.464 166.664 335.164 167.935 336.223 168.919C337.282 169.903 338.602 170.506 340.039 170.663L340.136 170.673C343.737 171.095 347.026 173.009 349.172 175.936C349.725 176.691 350.416 177.31 351.209 177.768C351.641 178.017 352.103 178.218 352.589 178.369C353.971 178.794 355.422 178.764 356.785 178.282C358.148 177.799 359.296 176.91 360.103 175.709C360.911 174.509 361.303 173.111 361.236 171.666L360.835 162.962Z" fill="white"/>
<path d="M342.62 152.229C344.092 152.463 345.569 152.021 346.777 150.985C347.926 149.999 348.697 148.582 348.947 146.994C349.195 145.406 348.897 143.821 348.106 142.529C347.274 141.172 346.006 140.296 344.535 140.065C341.576 139.597 338.739 141.946 338.209 145.302C337.791 147.974 338.961 150.49 340.95 151.638C341.457 151.931 342.018 152.135 342.62 152.229Z" fill="white"/>
<path d="M353.323 151.771C356.393 153.544 360.493 152.211 362.462 148.801C364.431 145.389 363.536 141.172 360.466 139.4C357.396 137.628 353.297 138.961 351.327 142.372C349.358 145.783 350.254 149.999 353.323 151.771Z" fill="white"/>
<path d="M361.869 158.872L361.87 158.872C362.244 159.296 362.675 159.644 363.146 159.916C365.348 161.187 368.43 160.804 370.688 158.785C371.987 157.622 372.832 156.087 373.066 154.463C373.312 152.762 372.867 151.169 371.815 149.975C370.762 148.781 369.243 148.149 367.538 148.193C365.909 148.236 364.296 148.9 362.997 150.063C360.255 152.516 359.75 156.468 361.869 158.872Z" fill="white"/>
<path d="M373.968 164.794L373.967 164.793C372.762 162.048 369.248 160.907 366.133 162.25C363.019 163.596 361.464 166.923 362.665 169.667C363.103 170.668 363.849 171.456 364.77 171.988C366.376 172.915 368.517 173.065 370.5 172.211C373.613 170.866 375.169 167.539 373.968 164.794Z" fill="white"/>
</g>
<g opacity="0.05">
<path d="M622.855 50.7233C623.63 47.1907 622.567 43.556 620.011 41.0006C617.456 38.4453 613.821 37.3822 610.289 38.1567L601.777 40.0224C600.364 40.3319 599.115 41.0721 598.165 42.1623C597.214 43.2526 596.652 44.5908 596.538 46.0326C596.425 47.4742 596.772 48.8833 597.54 50.1076C598.308 51.332 599.427 52.256 600.775 52.7801L600.865 52.8149C604.235 54.1544 606.917 56.8545 608.232 60.2369C608.571 61.1094 609.078 61.8861 609.726 62.5338C610.078 62.886 610.472 63.2002 610.903 63.4711C612.127 64.2398 613.536 64.5863 614.978 64.4734C616.42 64.3602 617.758 63.798 618.849 62.8474C619.94 61.8969 620.68 60.6481 620.99 59.2354L622.855 50.7233Z" fill="white"/>
<path d="M608.039 35.6425C609.401 36.2489 610.941 36.204 612.376 35.5159C613.741 34.8613 614.852 33.6919 615.505 32.2226C616.156 30.7537 616.278 29.1448 615.848 27.6919C615.396 26.1659 614.397 24.9921 613.036 24.388C610.3 23.1707 606.952 24.7048 605.571 27.8091C604.475 30.2823 604.955 33.0149 606.578 34.6386C606.993 35.0532 607.482 35.3954 608.039 35.6425Z" fill="white"/>
<path d="M618.496 37.9701C621.002 40.4766 625.307 40.2504 628.092 37.4659C630.877 34.6806 631.104 30.3754 628.597 27.8689C626.091 25.3626 621.786 25.5895 619.001 28.3748C616.216 31.1594 615.99 35.4638 618.496 37.9701Z" fill="white"/>
<path d="M624.913 47.0405L624.913 47.0407C625.165 47.5472 625.491 47.9949 625.876 48.3801C627.674 50.1777 630.75 50.6054 633.453 49.2388C635.01 48.4523 636.223 47.1883 636.87 45.6799C637.547 44.101 637.53 42.4466 636.822 41.0211C636.114 39.5953 634.81 38.5913 633.152 38.1932C631.567 37.8129 629.838 38.037 628.282 38.8239C624.999 40.4837 623.488 44.1696 624.913 47.0405Z" fill="white"/>
<path d="M635.066 55.8922L635.066 55.8908C634.612 52.9277 631.513 50.9164 628.157 51.4076C624.801 51.9011 622.437 54.7124 622.888 57.6739C623.052 58.7543 623.568 59.7084 624.32 60.4608C625.631 61.7721 627.661 62.4709 629.796 62.1593C633.152 61.6656 635.516 58.8544 635.066 55.8922Z" fill="white"/>
</g>
<g opacity="0.05">
<path d="M616.049 291.529C611.119 276.021 598.798 264.248 583.091 260.039C567.383 255.831 550.827 259.866 538.804 270.831L509.829 297.254C505.022 301.637 501.82 307.332 500.57 313.719C499.319 320.106 500.138 326.586 502.938 332.461C505.741 338.333 510.262 343.045 516.011 346.087C521.76 349.13 528.199 350.213 534.629 349.224L535.06 349.156C551.207 346.794 567.731 351.283 580.465 361.506C583.751 364.142 587.474 366.028 591.456 367.095C593.62 367.675 595.864 368.013 598.153 368.099C604.653 368.34 610.924 366.52 616.289 362.836C621.652 359.152 625.603 353.949 627.715 347.79C629.828 341.632 629.902 335.1 627.931 328.898L616.049 291.529Z" fill="white"/>
<path d="M524.378 266.096C531.05 265.395 536.952 261.755 540.995 255.845C544.844 250.222 546.543 243.164 545.779 235.971C545.012 228.781 541.867 222.238 536.923 217.543C531.73 212.612 525.196 210.285 518.533 210.993C505.131 212.406 495.534 225.918 497.139 241.121C498.432 253.225 506.448 262.795 516.429 265.47C518.977 266.153 521.654 266.385 524.378 266.096Z" fill="white"/>
<path d="M570.367 251.639C585.774 255.768 602.04 245.201 606.627 228.084C611.214 210.964 602.411 193.677 587.004 189.548C571.598 185.42 555.332 195.99 550.745 213.111C546.159 230.227 554.961 247.511 570.367 251.639Z" fill="white"/>
<path d="M615.782 272.548L615.783 272.549C617.904 273.956 620.181 274.968 622.549 275.602C633.599 278.563 646.548 273.308 654.009 261.9C658.305 255.333 660.19 247.678 659.315 240.345C658.402 232.668 654.613 226.259 648.648 222.297C642.681 218.334 635.342 217.354 627.983 219.534C620.953 221.617 614.717 226.382 610.424 232.949C601.365 246.803 603.769 264.567 615.782 272.548Z" fill="white"/>
<path d="M675.264 284.199L675.261 284.194C666.826 273.668 650.224 272.802 638.249 282.268C626.282 291.742 623.395 308.016 631.813 318.543C634.883 322.385 639.041 324.942 643.665 326.181C651.726 328.341 661.207 326.498 668.829 320.478C680.795 311.004 683.683 294.73 675.264 284.199Z" fill="white"/>
</g>
<g opacity="0.1">
<path d="M1362.38 6.10771C1363.2 13.4251 1367.62 19.7392 1374.22 22.9974C1380.81 26.2556 1388.52 25.9312 1394.82 22.1306L1410.02 12.9731C1412.54 11.454 1414.46 9.21074 1415.58 6.48807C1416.7 3.7648 1416.91 0.817289 1416.19 -2.03738C1415.47 -4.89083 1413.88 -7.38152 1411.6 -9.24039C1409.32 -11.0992 1406.56 -12.1502 1403.62 -12.2807L1403.42 -12.2887C1396.05 -12.6703 1389.11 -16.1252 1384.37 -21.7884C1383.14 -23.249 1381.66 -24.4155 1379.99 -25.2413C1379.08 -25.6904 1378.11 -26.0387 1377.1 -26.2796C1374.24 -26.9622 1371.3 -26.71 1368.59 -25.5503C1365.88 -24.3907 1363.67 -22.4321 1362.19 -19.8868C1360.71 -17.3416 1360.09 -14.4501 1360.42 -11.5238L1362.38 6.10771Z" fill="white"/>
<path d="M1400.8 25.5085C1397.78 25.2288 1394.84 26.3214 1392.52 28.5854C1390.32 30.7395 1388.94 33.7203 1388.64 36.9795C1388.34 40.2371 1389.16 43.419 1390.94 45.9398C1392.81 48.5871 1395.5 50.1981 1398.52 50.4739C1404.59 51.0338 1410.04 45.8888 1410.68 39.0015C1411.18 33.5165 1408.47 28.5606 1404.27 26.4904C1403.2 25.9618 1402.04 25.6214 1400.8 25.5085Z" fill="white"/>
<path d="M1379.12 27.8511C1372.65 24.6552 1364.5 27.903 1360.95 35.0911C1357.39 42.281 1359.77 50.7302 1366.24 53.9261C1372.71 57.1217 1380.86 53.8724 1384.41 46.6825C1387.96 39.4944 1385.59 31.0467 1379.12 27.8511Z" fill="white"/>
<path d="M1360.82 14.5529L1360.82 14.5526C1360 13.7403 1359.08 13.09 1358.09 12.5989C1353.45 10.3069 1347.24 11.4915 1342.92 15.8925C1340.43 18.4256 1338.92 21.6554 1338.65 24.9862C1338.38 28.4729 1339.49 31.6518 1341.79 33.9382C1344.09 36.2248 1347.26 37.3095 1350.71 36.9937C1354.02 36.6921 1357.21 35.1302 1359.69 32.5965C1364.94 27.2519 1365.44 19.1576 1360.82 14.5529Z" fill="white"/>
<path d="M1335.46 4.11647L1335.46 4.11916C1338.27 9.53635 1345.56 11.3904 1351.71 8.25096C1357.86 5.10737 1360.58 -1.85749 1357.78 -7.27379C1356.76 -9.24988 1355.14 -10.7525 1353.2 -11.7118C1349.81 -13.3837 1345.44 -13.4055 1341.53 -11.4098C1335.38 -8.26588 1332.66 -1.30133 1335.46 4.11647Z" fill="white"/>
</g>
<g opacity="0.1">
<path d="M886.721 154.945C882.68 154.06 878.522 155.276 875.599 158.199C872.676 161.122 871.46 165.28 872.346 169.321L874.48 179.058C874.834 180.674 875.681 182.103 876.928 183.19C878.175 184.277 879.706 184.92 881.355 185.051C883.004 185.18 884.616 184.783 886.017 183.904C887.417 183.025 888.474 181.746 889.074 180.204L889.114 180.101C890.646 176.246 893.735 173.178 897.604 171.674C898.602 171.286 899.49 170.706 900.231 169.965C900.634 169.562 900.994 169.111 901.304 168.618C902.183 167.218 902.579 165.606 902.45 163.956C902.321 162.307 901.677 160.776 900.59 159.528C899.503 158.28 898.074 157.434 896.458 157.079L886.721 154.945Z" fill="white"/>
<path d="M869.47 171.895C870.163 170.337 870.112 168.575 869.325 166.934C868.576 165.372 867.238 164.1 865.557 163.354C863.877 162.609 862.037 162.47 860.375 162.961C858.629 163.478 857.286 164.621 856.595 166.178C855.203 169.308 856.958 173.138 860.509 174.717C863.338 175.971 866.464 175.423 868.321 173.565C868.795 173.091 869.187 172.532 869.47 171.895Z" fill="white"/>
<path d="M872.132 159.933C874.999 157.065 874.741 152.141 871.555 148.956C868.369 145.769 863.444 145.51 860.577 148.377C857.71 151.244 857.969 156.169 861.156 159.355C864.341 162.541 869.265 162.8 872.132 159.933Z" fill="white"/>
<path d="M882.508 152.592L882.508 152.591C883.088 152.303 883.6 151.931 884.04 151.49C886.097 149.434 886.586 145.915 885.023 142.822C884.123 141.042 882.677 139.654 880.952 138.914C879.145 138.139 877.253 138.159 875.622 138.969C873.991 139.779 872.843 141.27 872.387 143.167C871.952 144.979 872.209 146.958 873.109 148.738C875.007 152.493 879.224 154.222 882.508 152.592Z" fill="white"/>
<path d="M892.634 140.977L892.632 140.977C889.243 141.496 886.942 145.041 887.504 148.881C888.068 152.72 891.284 155.424 894.672 154.909C895.908 154.721 896.999 154.131 897.86 153.27C899.36 151.77 900.159 149.448 899.803 147.005C899.238 143.167 896.022 140.462 892.634 140.977Z" fill="white"/>
</g>
<g opacity="0.1">
<path d="M978.578 194.93C975.946 191.738 971.924 190.129 967.819 190.625C963.715 191.121 960.192 193.641 958.395 197.368L954.064 206.346C953.346 207.836 953.13 209.483 953.44 211.108C953.751 212.733 954.558 214.184 955.775 215.305C956.993 216.424 958.506 217.107 960.151 217.28C961.795 217.453 963.417 217.098 964.84 216.255L964.935 216.199C968.52 214.111 972.843 213.604 976.816 214.809C977.841 215.119 978.898 215.211 979.938 215.086C980.504 215.017 981.065 214.884 981.613 214.688C983.169 214.129 984.476 213.105 985.393 211.727C986.308 210.35 986.748 208.748 986.662 207.095C986.577 205.443 985.975 203.895 984.923 202.618L978.578 194.93Z" fill="white"/>
<path d="M954.544 197.618C956.051 196.82 957.098 195.402 957.492 193.625C957.867 191.934 957.599 190.108 956.737 188.483C955.875 186.86 954.513 185.614 952.902 184.976C951.209 184.305 949.447 184.375 947.943 185.173C944.915 186.777 943.932 190.874 945.751 194.308C947.203 197.041 950.001 198.538 952.609 198.223C953.275 198.143 953.928 197.944 954.544 197.618Z" fill="white"/>
<path d="M964.022 189.849C968.047 189.363 970.883 185.329 970.343 180.856C969.803 176.383 966.088 173.139 962.062 173.626C958.037 174.112 955.201 178.147 955.742 182.62C956.282 187.092 959.996 190.335 964.022 189.849Z" fill="white"/>
<path d="M976.716 190.477L976.717 190.477C977.35 190.608 977.983 190.631 978.602 190.556C981.489 190.208 984.046 187.741 984.725 184.343C985.116 182.387 984.835 180.402 983.934 178.755C982.991 177.031 981.49 175.878 979.707 175.509C977.924 175.139 976.1 175.604 974.57 176.815C973.109 177.973 972.09 179.688 971.7 181.644C970.876 185.771 973.126 189.733 976.716 190.477Z" fill="white"/>
<path d="M991.852 187.589L991.851 187.588C988.863 185.904 984.865 187.273 982.937 190.641C981.012 194.01 981.874 198.122 984.857 199.808C985.945 200.423 987.168 200.633 988.377 200.487C990.483 200.232 992.545 198.899 993.772 196.757C995.697 193.388 994.836 189.275 991.852 187.589Z" fill="white"/>
</g>
<g opacity="0.1">
<path d="M855.028 62.1135C851.425 60.0805 847.094 60.0225 843.441 61.9587C839.789 63.895 837.406 67.5128 837.066 71.6356L836.248 81.5706C836.112 83.2188 836.502 84.8334 837.375 86.2386C838.249 87.6442 839.523 88.7084 841.061 89.3173C842.6 89.9249 844.257 90.0191 845.854 89.59C847.451 89.1608 848.837 88.2477 849.863 86.9502L849.931 86.8629C852.528 83.6274 856.381 81.6019 860.521 81.2999C861.589 81.2218 862.609 80.9281 863.535 80.4373C864.038 80.1705 864.514 79.8448 864.955 79.4645C866.207 78.384 867.059 76.9595 867.419 75.3446C867.78 73.7304 867.614 72.0778 866.941 70.5657C866.268 69.0537 865.151 67.8251 863.71 67.0118L855.028 62.1135Z" fill="white"/>
<path d="M833.562 73.2522C834.682 71.9664 835.15 70.267 834.88 68.4669C834.622 66.7538 833.717 65.1459 832.329 63.9393C830.941 62.7338 829.223 62.0603 827.49 62.0424C825.669 62.0239 824.05 62.7221 822.933 64.0076C820.683 66.5911 821.236 70.7678 824.167 73.3196C826.503 75.3488 829.653 75.7423 831.973 74.512C832.566 74.1978 833.104 73.7777 833.562 73.2522Z" fill="white"/>
<path d="M839.618 62.5983C843.201 60.699 844.399 55.9157 842.289 51.9356C840.179 47.9545 835.547 46.261 831.964 48.1603C828.382 50.0594 827.184 54.8431 829.295 58.8242C831.405 62.8044 836.036 64.4974 839.618 62.5983Z" fill="white"/>
<path d="M851.692 58.6268L851.692 58.6266C852.331 58.5214 852.93 58.3153 853.48 58.0234C856.05 56.6613 857.55 53.4411 856.964 50.0257C856.626 48.0596 855.652 46.3083 854.219 45.0948C852.72 43.8242 850.905 43.2871 849.109 43.5825C847.312 43.878 845.776 44.9662 844.784 46.6463C843.836 48.2512 843.5 50.2179 843.838 52.1837C844.551 56.3308 848.074 59.2212 851.692 58.6268Z" fill="white"/>
<path d="M864.781 50.4965L864.78 50.496C861.387 49.9972 858.147 52.7106 857.557 56.5459C856.97 60.3815 859.25 63.9104 862.64 64.4125C863.876 64.596 865.093 64.3521 866.169 63.782C868.043 62.7884 869.489 60.8035 869.865 58.3636C870.452 54.5282 868.172 50.9991 864.781 50.4965Z" fill="white"/>
</g>
<g opacity="0.05">
<path d="M732.099 51.4713C727.972 51.7597 724.325 54.0977 722.343 57.7258C720.362 61.354 720.366 65.6861 722.354 69.3137L727.145 78.0558C727.94 79.5062 729.155 80.6387 730.657 81.3305C732.16 82.0225 733.81 82.2085 735.43 81.8692C737.048 81.5286 738.483 80.6942 739.58 79.4563C740.676 78.2184 741.33 76.6927 741.471 75.0448L741.48 74.9342C741.864 70.8036 743.964 66.9905 747.253 64.4574C748.101 63.8038 748.79 62.997 749.293 62.0773C749.566 61.5773 749.784 61.0433 749.942 60.4829C750.391 58.8916 750.318 57.2333 749.729 55.6869C749.14 54.1413 748.092 52.8532 746.697 51.9621C745.302 51.0711 743.693 50.6612 742.043 50.7762L732.099 51.4713Z" fill="white"/>
<path d="M720.32 72.5938C720.547 70.9034 720.001 69.2273 718.784 67.8741C717.625 66.5862 715.983 65.7432 714.161 65.5007C712.338 65.2591 710.533 65.6438 709.077 66.5837C707.548 67.5712 706.581 69.0459 706.357 70.7344C705.902 74.1301 708.665 77.311 712.517 77.8258C715.585 78.232 718.43 76.8254 719.689 74.5201C720.01 73.9315 720.228 73.2842 720.32 72.5938Z" fill="white"/>
<path d="M719.505 60.3657C721.449 56.8069 719.814 52.1549 715.86 49.9957C711.905 47.8359 707.107 48.9743 705.163 52.5332C703.22 56.0916 704.856 60.7437 708.811 62.9034C712.764 65.0626 717.562 63.9242 719.505 60.3657Z" fill="white"/>
<path d="M727.393 50.3996L727.394 50.3993C727.868 49.9597 728.255 49.4577 728.554 48.9107C729.947 46.3585 729.426 42.8443 727.055 40.3172C725.69 38.8622 723.911 37.9377 722.047 37.7141C720.096 37.4796 718.286 38.0312 716.949 39.2675C715.612 40.5041 714.93 42.2583 715.028 44.2071C715.121 46.0687 715.924 47.895 717.289 49.3493C720.169 52.4177 724.702 52.8889 727.393 50.3996Z" fill="white"/>
<path d="M733.838 36.4032L733.836 36.4037C730.73 37.8565 729.521 41.906 731.142 45.4318C732.765 48.9564 736.612 50.645 739.718 49.1966C740.851 48.6685 741.732 47.7946 742.315 46.7264C743.332 44.8646 743.445 42.4117 742.415 40.168C740.792 36.6438 736.944 34.9548 733.838 36.4032Z" fill="white"/>
</g>
<g opacity="0.05">
<path d="M152.188 93.3923C153.22 89.3861 152.156 85.1867 149.342 82.159C146.527 79.1314 142.416 77.7648 138.346 78.5031L128.537 80.2814C126.909 80.5763 125.451 81.3706 124.319 82.5772C123.187 83.784 122.488 85.2904 122.298 86.9339C122.109 88.5772 122.446 90.2025 123.274 91.6341C124.101 93.0657 125.342 94.1687 126.86 94.8239L126.962 94.8675C130.759 96.5391 133.712 99.7375 135.074 103.659C135.426 104.67 135.973 105.579 136.687 106.347C137.074 106.764 137.512 107.14 137.994 107.467C139.361 108.397 140.957 108.852 142.611 108.783C144.263 108.714 145.817 108.127 147.103 107.085C148.39 106.044 149.288 104.647 149.701 103.045L152.188 93.3923Z" fill="white"/>
<path d="M135.878 75.5353C137.409 76.2852 139.172 76.2981 140.841 75.5712C142.429 74.8798 143.748 73.5892 144.555 71.9366C145.361 70.2846 145.567 68.4505 145.136 66.7716C144.684 65.0083 143.591 63.6248 142.06 62.8775C138.982 61.372 135.091 62.9863 133.384 66.4775C132.027 69.2593 132.462 72.4031 134.25 74.3268C134.707 74.818 135.252 75.2296 135.878 75.5353Z" fill="white"/>
<path d="M147.735 78.6315C150.496 81.6012 155.427 81.522 158.726 78.4547C162.026 75.3866 162.464 70.4745 159.703 67.5047C156.943 64.5352 152.012 64.6153 148.712 67.6833C145.413 70.7507 144.975 75.662 147.735 78.6315Z" fill="white"/>
<path d="M154.693 89.2678L154.694 89.2681C154.96 89.8576 155.314 90.383 155.739 90.8394C157.719 92.9692 161.218 93.5862 164.365 92.1365C166.177 91.3022 167.617 89.9078 168.419 88.2103C169.259 86.4336 169.308 84.5416 168.558 82.8825C167.808 81.2232 166.36 80.0211 164.48 79.4969C162.685 78.9961 160.698 79.1803 158.887 80.0152C155.065 81.7758 153.184 85.9266 154.693 89.2678Z" fill="white"/>
<path d="M165.932 99.8098L165.932 99.8082C165.536 96.4019 162.077 93.9736 158.22 94.3953C154.363 94.8197 151.544 97.9352 151.935 101.339C152.078 102.581 152.628 103.694 153.457 104.585C154.901 106.139 157.192 107.022 159.646 106.755C163.503 106.33 166.323 103.215 165.932 99.8098Z" fill="white"/>
</g>
<g opacity="0.05">
<path d="M418.919 9.02973C423.678 16.4605 431.783 20.8974 440.601 20.8974C449.418 20.8974 457.524 16.4605 462.282 9.02974L473.749 -8.87557C475.652 -11.8459 476.53 -15.2782 476.288 -18.7986C476.047 -22.3197 474.709 -25.5986 472.418 -28.283C470.125 -30.9651 467.096 -32.7983 463.658 -33.5849C460.22 -34.3715 456.696 -34.0356 453.467 -32.615L453.25 -32.5189C445.125 -29.0155 435.84 -29.0478 427.736 -32.615C425.645 -33.5349 423.43 -34 421.195 -34C419.98 -34 418.758 -33.8619 417.546 -33.5857C414.108 -32.7999 411.079 -30.9667 408.786 -28.2838C406.495 -25.6018 405.155 -22.3221 404.913 -18.8002C404.671 -15.2782 405.549 -11.8467 407.452 -8.87477L418.919 9.02973Z" fill="white"/>
<path d="M470.502 9.48477C467.106 10.7884 464.526 13.5232 463.237 17.186C462.011 20.6714 462.111 24.6062 463.521 28.2666C464.931 31.9246 467.497 34.9106 470.745 36.6758C474.157 38.5293 477.906 38.8311 481.297 37.5251C488.118 34.9042 491.248 26.4806 488.274 18.7432C485.898 12.5848 480.356 8.69731 474.753 8.69731C473.323 8.69731 471.888 8.95097 470.502 9.48477Z" fill="white"/>
<path d="M448.444 23.5114C439.795 23.5114 432.758 31.3286 432.758 40.9372C432.758 50.5482 439.795 58.3669 448.444 58.3669C457.092 58.3669 464.128 50.5482 464.128 40.9372C464.128 31.3286 457.092 23.5114 448.444 23.5114Z" fill="white"/>
<path d="M421.723 18.9336L421.722 18.9336C420.414 18.4941 419.079 18.2841 417.75 18.2841C411.547 18.2841 405.502 22.8535 403.195 29.8758C401.867 33.9181 401.954 38.1923 403.441 41.9102C404.997 45.8025 407.881 48.6276 411.562 49.8659C415.243 51.1041 419.224 50.5876 422.773 48.4128C426.163 46.3353 428.76 42.9644 430.087 38.9221C432.887 30.3948 429.135 21.4279 421.723 18.9336Z" fill="white"/>
<path d="M388.934 21.1788L388.936 21.1812C394.831 25.5107 403.648 23.6342 408.592 16.9959C413.53 10.3543 412.758 1.4256 406.872 -2.90708C404.725 -4.48821 402.188 -5.24395 399.592 -5.24395C395.067 -5.24395 390.36 -2.94791 387.213 1.27429C382.275 7.91581 383.046 16.8446 388.934 21.1788Z" fill="white"/>
</g>
<g opacity="0.2">
<path d="M1191.18 -5.76021C1188.5 -8.19705 1184.82 -9.09379 1181.33 -8.15846C1177.84 -7.22313 1175.11 -4.60689 1174.01 -1.16051L1171.37 7.1442C1170.93 8.52191 1170.95 9.9738 1171.42 11.3418C1171.89 12.7102 1172.76 13.8662 1173.96 14.6859C1175.15 15.5045 1176.54 15.909 1177.99 15.8557C1179.43 15.8024 1180.79 15.2955 1181.92 14.3906L1181.99 14.3296C1184.84 12.0808 1188.52 11.1087 1192.1 11.6612C1193.03 11.8036 1193.95 11.7528 1194.84 11.5157C1195.32 11.3868 1195.79 11.2025 1196.24 10.9647C1197.52 10.2889 1198.52 9.24185 1199.15 7.93653C1199.77 6.6317 1199.95 5.19127 1199.67 3.77134C1199.4 2.3514 1198.68 1.08608 1197.62 0.111364L1191.18 -5.76021Z" fill="white"/>
<path d="M1170.71 -0.468921C1171.91 -1.34523 1172.65 -2.70156 1172.77 -4.28824C1172.88 -5.79812 1172.43 -7.3452 1171.48 -8.64472C1170.53 -9.9432 1169.2 -10.8532 1167.73 -11.2074C1166.18 -11.5792 1164.66 -11.301 1163.46 -10.4244C1161.04 -8.66328 1160.69 -4.99651 1162.69 -2.24899C1164.28 -0.0630593 1166.89 0.8881 1169.11 0.293802C1169.67 0.142053 1170.22 -0.110538 1170.71 -0.468921Z" fill="white"/>
</g>
</svg>
